inDegrees=yes
name=ik_S40_A10_T01
DataType=double
version=3
OpenSimVersion=4.3-2021-08-27-4bc7ad9
endheader
time	pelvis_tilt	pelvis_list	pelvis_rotation	pelvis_tx	pelvis_ty	pelvis_tz	hip_flexion_r	hip_adduction_r	hip_rotation_r	knee_angle_r	knee_angle_r_beta	ankle_angle_r	subtalar_angle_r	mtp_angle_r	hip_flexion_l	hip_adduction_l	hip_rotation_l	knee_angle_l	knee_angle_l_beta	ankle_angle_l	subtalar_angle_l	mtp_angle_l	lumbar_extension	lumbar_bending	lumbar_rotation	arm_flex_r	arm_add_r	arm_rot_r	elbow_flex_r	pro_sup_r	wrist_flex_r	wrist_dev_r	arm_flex_l	arm_add_l	arm_rot_l	elbow_flex_l	pro_sup_l	wrist_flex_l	wrist_dev_l
15.19999999999976	-8.27607272402938	-6.84381022119327	34.92990891988928	0	0.9399999999999999	0	44.76964609534044	-9.999966132193242	-9.999081565178653	54.47121434591109	0.9507020378957179	0	0	0	44.76964609534044	-9.999966132193242	-9.999081565178653	54.47121434591109	0.9507020378957179	0	0	0	-9.965677711679827	-1.009680718815736	7.285237096813096	39.66445270417833	11.61088338680729	23.37715795923142	11.09938815648214	63.97474526479093	0	0	39.49601110790147	12.57384659559682	15.16667256849659	6.962245882242933	63.60864801620336	0	0
15.21999999999976	-7.948701971469208	-6.551223529553565	34.9619819350911	0	0.9399999999999999	0	44.77083841890291	-9.999966564460674	-9.999090110061001	54.47359391463932	0.9507435692048031	0	0	0	44.77083841890291	-9.999966564460674	-9.999090110061001	54.47359391463932	0.9507435692048031	0	0	0	-9.530794012151905	-0.9647360107530787	7.270639512243371	40.5583746876405	11.6592462066159	24.77492014098858	11.40252414848939	62.27950655728273	0	0	41.5518136119286	12.92188252478303	15.96460398634646	6.086180348627899	63.02131901051418	0	0
15.23999999999976	-7.162096316681657	-5.895152783428928	34.97038371958003	0	0.9399999999999999	0	44.77228390253826	-9.999967090131763	-9.999100479967653	54.47648672581364	0.9507940582844334	0	0	0	44.77228390253826	-9.999967090131763	-9.999100479967653	54.47648672581364	0.9507940582844334	0	0	0	-8.515734112611787	-0.8713880120865397	7.181326458337244	40.72948537585604	11.73339824068699	26.00958538355374	11.71540310582618	60.60310860865524	0	0	42.93331437833015	13.12194119526396	15.22003044327414	5.300098968929385	64.05768108444549	0	0
15.25999999999976	-6.679639288474164	-5.511515306761816	35.05180928875158	0	0.9399999999999999	0	44.77362690122903	-9.999967591565483	-9.999110259888488	54.47914736072224	0.950840495123782	0	0	0	44.77362690122903	-9.999967591565483	-9.999110259888488	54.47914736072224	0.950840495123782	0	0	0	-7.906658187658097	-0.8300528901874864	7.130857083254007	42.07335874799113	11.85724280914273	26.80089004316779	10.76106167451391	59.06536328299501	0	0	45.63095957764469	13.35046991555738	13.37946493986647	4.561905672849799	66.12880840264737	0	0
15.27999999999976	-6.412009327291087	-5.307078523547184	35.13971575113879	0	0.9399999999999999	0	44.77514784092765	-9.999968161771495	-9.999121361700194	54.4821595198169	0.9508930672175776	0	0	0	44.77514784092765	-9.999968161771495	-9.999121361700194	54.4821595198169	0.9508930672175776	0	0	0	-7.576580283133944	-0.8050964814936397	7.105689995303194	48.0747606500092	12.11874648646605	26.89471242335287	7.957055638603881	57.16279432245315	0	0	49.30641005683085	13.6720424538916	10.86057492200616	2.29767592303193	68.17990195735912	0	0
15.29999999999976	-5.861879095873888	-4.903883777238376	35.36836576994077	0	0.9399999999999999	0	44.77932970971524	-9.999969599731738	-9.999150573898397	54.49046703649822	0.951038060736331	0	0	0	44.77932970971524	-9.999969599731738	-9.999150573898397	54.49046703649822	0.951038060736331	0	0	0	-6.897326145836409	-0.765590918425343	6.966898919055588	51.3665513934669	11.6635195147653	25.2924714641694	10.41285260599627	57.24108365867572	0	0	57.61093778272203	13.84278600235346	6.043980024657749	-2.911874751257847	71.89809344441659	0	0
15.31999999999976	-5.324497124012941	-4.481189061454441	35.17834877598619	0	0.9399999999999999	0	44.78301824019302	-9.99997080114381	-9.999175529673039	54.49795091766848	0.9511686791035802	0	0	0	44.78301824019302	-9.99997080114381	-9.999175529673039	54.49795091766848	0.9511686791035802	0	0	0	-6.207776502150758	-0.7696018229238321	7.156025571344807	54.5224516702344	11.5021673798344	23.45994865215772	10.49763922105688	57.78422950773222	0	0	56.33888942698994	13.44400812225315	6.006808487520351	1.151412833295751	73.01784735351001	0	0
15.33999999999976	-4.790707095834278	-4.072451092236637	35.22452342732753	0	0.9399999999999999	0	44.78638022024032	-9.999971876058709	-9.999198059148693	54.504751719955	0.951287375495257	0	0	0	44.78638022024032	-9.999971876058709	-9.999198059148693	54.504751719955	0.951287375495257	0	0	0	-5.545293312029412	-0.7356179859176197	7.007845605179851	53.55958785588059	11.22671786783045	23.23828133055849	14.51650105501908	58.1027798413424	0	0	60.07542445370711	13.2959140986647	4.712386742000903	1.044940512350725	74.32833956477826	0	0
15.35999999999976	-4.292914553733872	-3.696414649035551	34.93734773026745	0	0.9399999999999999	0	44.79085342158021	-9.999973280637819	-9.999227733058628	54.5138140991445	0.951445543850178	0	0	0	44.79085342158021	-9.999973280637819	-9.999227733058628	54.5138140991445	0.951445543850178	0	0	0	-4.931319650783238	-0.7211048897628475	7.18183436359958	57.06528620107055	11.26658812895879	21.35535172767924	13.04685089740968	58.74082419745098	0	0	58.99895224374087	12.6552854044561	4.425358474717926	8.898021998041143	75.95784790121066	0	0
15.37999999999976	-4.034435225257083	-3.519863611257687	34.83679034543285	0	0.9399999999999999	0	44.79419558960679	-9.999974308033606	-9.99924960241122	54.52065851469092	0.9515650014368378	0	0	0	44.79419558960679	-9.999974308033606	-9.99924960241122	54.52065851469092	0.9515650014368378	0	0	0	-4.665888801085195	-0.6676397452010866	7.214377200721326	61.4135438662187	11.20961368135416	19.86877128745594	13.97950490230318	58.7661287094128	0	0	68.25306646897832	13.21303114699634	5.297133943031598	5.150492866842898	73.05618143072259	0	0
15.39999999999976	-3.618479884025989	-3.189306236709133	34.74814831220127	0	0.9399999999999999	0	44.79772687705638	-9.999975358042732	-9.99927228791943	54.52793432109228	0.9516919882142792	0	0	0	44.79772687705638	-9.999975358042732	-9.99927228791943	54.52793432109228	0.9516919882142792	0	0	0	-4.175031863578914	-0.5784553594863809	7.207528061119779	65.33955234918396	11.4942521733438	19.16271612078982	15.46913067465457	57.71097483984674	0	0	71.80876767469067	13.29886714563979	7.15044931170594	6.700227146055363	69.2668358061904	0	0
15.41999999999976	-3.282033991516254	-2.893265844411193	34.67896547144542	0	0.9399999999999999	0	44.80150381055953	-9.999976452075611	-9.999296207192833	54.53573393149316	0.9518281170961472	0	0	0	44.80150381055953	-9.999976452075611	-9.999296207192833	54.53573393149316	0.9518281170961472	0	0	0	-3.771716400614121	-0.461373880445491	7.14798279392415	69.21653655502857	11.7839294635942	19.29767137267304	17.47790643525694	56.08468498057688	0	0	75.34574380748766	13.36672380046385	9.020332178640052	8.868221900255305	65.09798052666881	0	0
15.43999999999976	-2.936411677110794	-2.43004036600705	34.63449724454399	0	0.9399999999999999	0	44.80380749528358	-9.99997710798608	-9.999310661060948	54.5404833908649	0.9519110107998738	0	0	0	44.80380749528358	-9.99997710798608	-9.999310661060948	54.5404833908649	0.9519110107998738	0	0	0	-3.241654665967923	-0.2384289854286195	7.074945995194036	72.47429066363546	11.85754437171078	20.97881942338305	16.48523718596944	53.66701638643395	0	0	78.62376780382242	13.31119408047147	10.23498994134376	10.89804270292928	61.88490550165071	0	0
